<svg xmlns="http://www.w3.org/2000/svg" xml:space="preserve" width="655.359" height="655.359" style="shape-rendering:geometricPrecision;text-rendering:geometricPrecision;image-rendering:optimizeQuality;fill-rule:evenodd;clip-rule:evenodd" viewBox="0 0 6.827 6.827"><defs><style>.fil1{fill:#fffffe}</style></defs><path style="fill:transparent" d="M0 0h6.827v6.827H0z"/><g id="Layer_x0020_1"><path class="fil1" d="M3.413 2.59c.718 0 1.176.392 1.376.892a1.687 1.687 0 0 1 .107.815l-.517-.383a.374.374 0 0 0-.576-.427L2.764 2.72c.186-.082.402-.128.65-.128zm-.426 2.044a.107.107 0 0 0 0 .214h.853a.107.107 0 0 0 0-.214h-.853zM2.81 3.627a.175.175 0 1 1 0 .35.175.175 0 0 1 0-.35zm.15-.111c.444.146-.328-.451-.43-.226a.107.107 0 0 0 .077.131l.353.095zM2.606 2.8l1.091.808a.373.373 0 0 0 .064.445.373.373 0 0 0 .53 0l.003-.004.573.425a1.62 1.62 0 0 1-.078.256c-.2.5-.658.891-1.376.891-.717 0-1.176-.39-1.375-.89a1.687 1.687 0 0 1-.118-.625c0-.214.04-.428.118-.624.11-.277.3-.52.568-.682z"/><path class="fil1" d="M5.187 1.966a12.093 12.093 0 0 0 .734.482c.051.03.068.097.037.148-.103.17-.289.425-.48.663a5.27 5.27 0 0 1-.463.514 1.777 1.777 0 0 0-.097-.339c-.22-.55-.722-.98-1.505-.98-.783 0-1.284.43-1.504.98-.044.11-.076.223-.098.339a5.27 5.27 0 0 1-.462-.514 6.718 6.718 0 0 1-.48-.663.108.108 0 0 1 .044-.152c.224-.131.472-.302.727-.478 1.729-1.194 1.807-1.202 3.547 0zm-1.311-.082a.054.054 0 0 0 0-.108h-.217a.251.251 0 0 0-.192-.191v-.217a.054.054 0 0 0-.107 0v.217a.251.251 0 0 0-.192.191H2.95a.054.054 0 0 0 0 .108h.217a.25.25 0 0 0 .192.192v.217a.054.054 0 0 0 .107 0v-.217a.251.251 0 0 0 .192-.192h.217z"/></g><path style="fill:none" d="M0 0h6.827v6.827H0z"/></svg>
